@startuml

class Client
Interface OrderingServiceRole
Interface MemberRepositoryRole
Interface DiscountingPolicyRole
class MemoryMemberRepository implements MemberRepositoryRole
class DbMemberRepository implements MemberRepositoryRole
class OrderingServiceRoleImpl implements OrderingServiceRole
class FixDiscountingPolicy implements DiscountingPolicyRole
class RateDiscountingPolicy implements DiscountingPolicyRole

Client --> OrderingServiceRole: 1. 주문 생성(회원 ID, 상품명, 상품 가격)
OrderingServiceRole --> MemberRepositoryRole: 2. 회원 조회
OrderingServiceRole --> DiscountingPolicyRole: 3. 할인 적용
OrderingServiceRole --> Client: 4. 주문 결과 반환


@enduml